<svg width="182" height="22" viewBox="0 0 182 22" fill="none" xmlns="http://www.w3.org/2000/svg">
<path d="M8.352 10.776V7.32H19.836V0.516H0.72V21H8.352V17.616H16.02V10.776H8.352ZM36.6216 0.516V10.776C36.6216 12.648 34.8936 14.196 32.7696 14.196C30.6816 14.196 28.9536 12.648 28.9536 10.776V0.516H21.3216V10.776C21.3216 16.464 26.4336 21.072 32.7696 21.072C39.1416 21.072 44.2536 16.464 44.2536 10.776V0.516H36.6216ZM52.596 12.576L67.68 21V0.516H60.768V8.94L45.72 0.516V21H52.596V12.576ZM82.8852 0.516H69.1692V21H82.8852C87.9972 21 92.1012 16.428 92.1012 10.776C92.1012 5.088 87.9972 0.516 82.8852 0.516ZM81.3732 14.196H76.8012V7.356H81.3732C83.1012 7.356 84.4692 8.868 84.4692 10.776C84.4692 12.648 83.1012 14.196 81.3732 14.196ZM112.072 10.74C112.036 10.74 112.036 10.704 111.964 10.704C111.064 10.056 109.912 9.552 108.652 9.192C108.652 9.192 103.144 7.644 103 7.572C102.82 7.5 102.676 7.392 102.568 7.284C102.496 7.212 102.46 7.176 102.424 7.104C102.388 7.068 102.388 7.032 102.352 7.032C102.316 6.924 102.28 6.816 102.28 6.708C102.28 6.132 103.072 5.664 104.08 5.664C105.052 5.664 105.88 6.132 105.88 6.708C105.88 6.96 105.88 7.32 105.88 7.32H114.556C114.592 7.14 114.592 6.924 114.592 6.708C114.592 5.376 113.872 4.116 112.648 3.108C112.432 2.928 112.18 2.712 111.928 2.568C111.892 2.532 111.856 2.532 111.856 2.496C111.604 2.352 111.352 2.172 111.064 2.028C111.028 2.028 110.992 2.028 110.992 1.992C110.38 1.668 109.696 1.416 108.976 1.164H108.94C108.616 1.056 108.292 0.983998 107.968 0.875999C107.86 0.875999 107.752 0.84 107.644 0.84C107.392 0.767999 107.104 0.731999 106.852 0.66C106.708 0.66 106.6 0.623998 106.456 0.623998C106.204 0.587999 105.916 0.551999 105.628 0.516C105.52 0.516 105.412 0.516 105.268 0.479998C104.872 0.479998 104.476 0.443999 104.08 0.443999C103.36 0.443999 102.64 0.479998 101.956 0.587999C101.272 0.66 100.624 0.767999 99.9757 0.947999C99.3637 1.092 98.7517 1.308 98.1757 1.524C97.0597 1.956 96.0877 2.532 95.3317 3.216C94.2157 4.224 93.5677 5.412 93.5677 6.708C93.5677 6.924 93.5677 7.14 93.6037 7.32C93.8197 8.652 94.7197 9.84 96.0877 10.776C96.0877 10.812 96.1237 10.812 96.1597 10.848C97.0957 11.46 98.2117 12 99.5077 12.36C99.5077 12.36 105.016 13.908 105.16 13.98C105.34 14.052 105.448 14.124 105.556 14.232C105.628 14.304 105.7 14.376 105.736 14.448C105.772 14.484 105.772 14.484 105.772 14.52C105.844 14.628 105.88 14.7 105.88 14.808C105.88 15.42 105.052 15.888 104.08 15.888C103.072 15.888 102.28 15.42 102.28 14.808C102.28 14.592 102.28 14.196 102.28 14.196H93.6037C93.5677 14.412 93.5677 14.628 93.5677 14.808C93.5677 16.428 94.5757 17.868 96.2317 18.984C96.2677 18.984 96.2677 19.02 96.3037 19.02C96.5557 19.2 96.8077 19.344 97.0597 19.488C97.0957 19.524 97.1317 19.524 97.1677 19.56C97.7797 19.848 98.4277 20.136 99.1477 20.352C99.1837 20.352 99.1837 20.388 99.2197 20.388C99.5437 20.46 99.8677 20.568 100.192 20.64C100.3 20.676 100.408 20.676 100.48 20.712C100.768 20.784 101.02 20.82 101.308 20.856C101.416 20.892 101.56 20.892 101.668 20.928C101.956 20.964 102.208 21 102.496 21C102.64 21.036 102.748 21.036 102.856 21.036C103.252 21.072 103.648 21.072 104.08 21.072C109.876 21.072 114.592 18.3 114.592 14.808C114.592 13.26 113.656 11.856 112.072 10.74Z" fill="#4D86FB"/>
<path d="M136.192 10.02C137.272 9.012 137.956 7.608 137.956 6.096C137.956 3 135.148 0.516 131.728 0.516C128.704 0.516 116.068 0.516 116.068 0.516V21C116.068 21 128.956 21 132.268 21C135.976 21 139 18.3 139 14.952C139 12.9 137.884 11.1 136.192 10.02ZM123.7 5.268H128.884C129.82 5.268 130.612 5.988 130.612 6.816C130.612 7.68 129.82 8.4 128.884 8.4H123.7V5.268ZM129.604 16.248H123.7V13.152H129.604C130.54 13.152 131.332 13.836 131.332 14.7C131.332 15.564 130.54 16.248 129.604 16.248ZM151.914 0.443999C145.578 0.443999 140.466 5.052 140.466 10.776C140.466 16.464 145.578 21.072 151.914 21.072C158.286 21.072 163.398 16.464 163.398 10.776C163.398 5.052 158.286 0.443999 151.914 0.443999ZM151.914 14.196C149.826 14.196 148.098 12.648 148.098 10.776C148.098 8.868 149.826 7.32 151.914 7.32C154.038 7.32 155.766 8.868 155.766 10.776C155.766 12.648 154.038 14.196 151.914 14.196ZM181.449 0.516H173.781L171.873 3.936L169.965 0.516H162.333L168.057 10.776L162.333 21H169.965L171.873 17.616L173.781 21H181.449L175.725 10.776L181.449 0.516Z" fill="#8B6EFC"/>
</svg>
